#!OML:ASF F:\VICON\USERDATA\INSTALL\rory3\rory3.ASF
:FULLY-SPECIFIED
:DEGREES
3816
root -6.66877 17.9957 17.5407 -1610.41 76.91 -169.422
lowerback 10.2643 2.06289 -1.03088
upperback 0.60523 2.67271 0.298835
thorax -5.18442 1.35891 0.500354
lowerneck -19.1682 -3.09346 -10.0505
upperneck 27.8262 -2.33819 5.73888
head 12.6507 -1.15519 3.58152
rclavicle 4.77083e-014 -1.19271e-015
rhumerus -34.9206 -4.58287 -83.3959
rradius 35.933
rwrist 5.06851
rhand -19.0871 7.36198
rfingers 7.12502
rthumb 7.22112 -22.4948
lclavicle 4.77083e-014 -1.19271e-015
lhumerus -35.749 3.8251 83.8265
lradius 29.3592
lwrist -10.6021
lhand -15.2048 23.4883
lfingers 7.12502
lthumb 10.9672 53.1819
rfemur -4.85375 -11.3901 16.7154
rtibia 55.5651
rfoot 4.03844 -5.31869
rtoes 1.00249
lfemur -8.61794 5.89412 -27.5205
ltibia 15.0866
lfoot -3.53007 0.555351
ltoes 22.0531
3817
root -6.56929 17.9875 17.5165 -1613.55 76.1723 -172.147
lowerback 10.7476 1.86919 -1.72249
upperback 0.691182 2.33171 0.31213
thorax -5.3864 1.20911 0.938883
lowerneck -19.1109 -2.94756 -10.4187
upperneck 27.8677 -2.05936 5.9224
head 12.6361 -1.04541 3.76403
rclavicle 7.35752e-014 4.77083e-015
rhumerus -34.9392 -4.40714 -83.3336
rradius 35.506
rwrist 5.13599
rhand -18.7157 7.43922
rfingers 7.12502
rthumb 7.57955 -22.405
lclavicle 7.35752e-014 4.77083e-015
lhumerus -35.5264 3.66326 83.9964
lradius 29.8648
lwrist -10.2199
lhand -15.6662 23.3452
lfingers 7.12502
lthumb 10.5221 53.0618
rfemur -5.25671 -11.0936 16.0389
rtibia 56.5622
rfoot 2.96225 -5.61516
rtoes 1.37496
lfemur -7.48067 5.53924 -28.0385
ltibia 14.7224
lfoot -3.78337 0.374951
ltoes 24.6194
3818
root -6.47147 17.9647 17.4909 -1614.57 75.406 -172.704
lowerback 11.1817 1.84858 -1.77423
upperback 0.755256 2.29161 0.26522
thorax -5.56057 1.19201 0.912616
lowerneck -19.0051 -2.97869 -10.1393
upperneck 28.0174 -2.12976 5.71027
head 12.6758 -1.07264 3.6272
rclavicle 5.38955e-014 1.19271e-015
rhumerus -35.1673 -4.97843 -83.2467
rradius 35.2018
rwrist 5.10347
rhand -18.2913 7.10474
rfingers 7.12502
rthumb 7.98922 -22.7243
lclavicle 5.38955e-014 1.19271e-015
lhumerus -35.1958 2.80075 84.1476
lradius 30.3662
lwrist -9.76502
lhand -15.8373 23.6502
lfingers 7.12502
lthumb 10.3571 53.3751
rfemur -5.7213 -10.6877 15.9313
rtibia 57.4796
rfoot 2.09296 -5.9735
rtoes 2.14861
lfemur -6.42283 5.88062 -28.1909
ltibia 14.3153
lfoot -3.99148 -0.144409
ltoes 22.8645
3819
root -6.37529 17.9494 17.4586 -1615.98 74.7262 -174.058
lowerback 11.2196 2.04513 -1.87226
upperback 0.69134 2.5208 -0.0507073
thorax -5.64604 1.3039 0.597643
lowerneck -18.6391 -3.13834 -9.46879
upperneck 27.8986 -2.55927 5.54054
head 12.5783 -1.21051 3.37203
rclavicle -1.90336e-014 1.39149e-014
rhumerus -35.5389 -6.30815 -83.1609
rradius 34.8722
rwrist 5.08232
rhand -17.8369 6.47023
rfingers 7.12502
rthumb 8.42776 -23.3416
lclavicle -1.90336e-014 1.39149e-014
lhumerus -34.7796 1.41931 84.2192
lradius 30.7556
lwrist -9.39357
lhand -15.5524 23.8554
lfingers 7.12502
lthumb 10.6319 53.5665
rfemur -6.61863 -10.3263 15.6093
rtibia 58.2908
rfoot 1.60468 -6.07301
rtoes 1.46585
lfemur -5.76848 5.81129 -28.5907
ltibia 13.9655
lfoot -4.1719 -0.539159
ltoes 21.6328
3820
root -6.27943 17.9423 17.4244 -1618.2 73.9646 -176.445
lowerback 11.0865 2.07718 -2.35703
upperback 0.62318 2.48973 -0.315157
thorax -5.65152 1.29814 0.601308
lowerneck -18.5181 -3.19689 -9.17166
upperneck 27.9524 -2.71929 5.46202
head 12.5825 -1.25729 3.26686
rclavicle 4.74598e-015 3.97569e-015
rhumerus -35.6992 -7.21991 -83.0399
rradius 34.3693
rwrist 5.42773
rhand -17.5116 6.1668
rfingers 7.12502
rthumb 8.74169 -23.6322
lclavicle 4.74598e-015 3.97569e-015
lhumerus -34.429 0.781066 84.2505
lradius 31.1454
lwrist -9.18886
lhand -15.3977 23.6728
lfingers 7.12502
lthumb 10.7812 53.3761
rfemur -7.66726 -10.0589 14.9586
rtibia 58.9883
rfoot 1.18299 -6.13786
rtoes 0.392009
lfemur -5.325 5.56324 -29.2719
ltibia 13.7498
lfoot -4.31218 -1.14445
ltoes 21.6813
3821
root -6.18382 17.9334 17.3899 -1619.15 73.0811 -177.432
lowerback 11.0586 1.94277 -2.58459
upperback 0.592449 2.28241 -0.32281
thorax -5.67054 1.20228 0.754648
lowerneck -18.6109 -3.2135 -9.27
upperneck 28.247 -2.6658 5.39257
head 12.7185 -1.25003 3.2753
rclavicle 8.3738e-015 -1.82882e-014
rhumerus -35.8525 -7.5058 -82.8589
rradius 34.0134
rwrist 5.58437
rhand -17.2896 6.18892
rfingers 7.12502
rthumb 8.95589 -23.601
lclavicle 8.3738e-015 -1.82882e-014
lhumerus -34.151 1.50223 84.0848
lradius 31.6845
lwrist -9.78099
lhand -16.107 23.6981
lfingers 7.12502
lthumb 10.097 53.4359
rfemur -8.55958 -9.82848 14.6831
rtibia 59.5286
rfoot 0.580635 -6.18704
rtoes -0.514239
lfemur -4.86701 5.45055 -29.539
ltibia 13.6752
lfoot -4.53278 -1.93485
ltoes 22.3922
3822
root -6.08824 17.9226 17.3567 -1619.67 72.2272 -177.89
lowerback 11.0977 1.88788 -2.71745
upperback 0.587341 2.19342 -0.296509
thorax -5.70084 1.16277 0.869721
lowerneck -18.4516 -3.25937 -9.3574
upperneck 28.1902 -2.70894 5.38338
head 12.6686 -1.27843 3.27827
rclavicle -5.09386e-015 -8.34896e-015
rhumerus -36.0149 -7.79003 -82.6443
rradius 33.6796
rwrist 5.39083
rhand -16.994 6.54925
rfingers 7.12502
rthumb 9.24109 -23.2282
lclavicle -5.09386e-015 -8.34896e-015
lhumerus -33.7981 2.34201 83.8822
lradius 32.2575
lwrist -10.5037
lhand -17.144 23.8814
lfingers 7.12502
lthumb 9.0964 53.6652
rfemur -9.33111 -9.45393 14.5705
rtibia 59.9317
rfoot -0.252508 -6.08741
rtoes -2.05122
lfemur -4.40751 5.26164 -29.6532
ltibia 13.7723
lfoot -4.91646 -2.48467
ltoes 23.0893
3823
root -5.99389 17.9065 17.3285 -1620.29 71.4404 -178.447
lowerback 11.1854 1.85055 -2.91323
upperback 0.578801 2.11618 -0.309169
thorax -5.76283 1.13074 0.975995
lowerneck -18.366 -3.31559 -9.47453
upperneck 28.2061 -2.78704 5.49314
head 12.6687 -1.30932 3.32958
rclavicle -1.18277e-014 1.19271e-015
rhumerus -36.1407 -8.34872 -82.3734
rradius 33.2528
rwrist 5.44632
rhand -16.2424 7.69652
rfingers 7.12502
rthumb 9.96632 -22.0475
lclavicle -1.18277e-014 1.19271e-015
lhumerus -33.4575 2.37217 83.8886
lradius 32.792
lwrist -10.48
lhand -17.093 23.7692
lfingers 7.12502
lthumb 9.14565 53.5508
rfemur -10.1053 -8.93146 14.4467
rtibia 60.2144
rfoot -1.11247 -6.05361
rtoes -2.96274
lfemur -4.0228 5.28427 -29.8307
ltibia 13.9829
lfoot -5.31217 -3.07796
ltoes 21.6896
3824
root -5.89817 17.8912 17.2981 -1620.71 70.6877 -178.824
lowerback 11.1617 1.79074 -3.03222
upperback 0.595644 2.02332 -0.31727
thorax -5.73186 1.0881 1.05051
lowerneck -18.4317 -3.39636 -9.79109
upperneck 28.4922 -2.87364 5.79927
head 12.8189 -1.33768 3.50039
rclavicle -2.41026e-015 4.77083e-015
rhumerus -36.2661 -8.94902 -82.0979
rradius 32.8007
rwrist 5.67988
rhand -15.7471 8.75802
rfingers 7.12502
rthumb 10.4441 -20.9626
lclavicle -2.41026e-015 4.77083e-015
lhumerus -33.0522 2.10505 83.9713
lradius 33.2136
lwrist -10.2571
lhand -16.7065 23.7125
lfingers 7.12502
lthumb 9.51856 53.4775
rfemur -10.8974 -8.41568 14.3657
rtibia 60.3512
rfoot -1.88594 -6.0721
rtoes -2.872
lfemur -3.69547 5.19562 -29.9557
ltibia 14.2735
lfoot -5.66164 -3.60308
ltoes 20.5098
3825
root -5.80152 17.8769 17.2658 -1621.42 69.9444 -179.497
lowerback 11.0764 1.73195 -3.30072
upperback 0.672289 1.91727 -0.348352
thorax -5.60654 1.04156 1.18979
lowerneck -18.4561 -3.43678 -9.93213
upperneck 28.6221 -2.92658 5.96636
head 12.8882 -1.35178 3.58708
rclavicle 3.46631e-014 9.93923e-015
rhumerus -36.3803 -8.93443 -82.1106
rradius 32.5634
rwrist 5.46838
rhand -16.2597 8.31876
rfingers 7.12502
rthumb 9.94964 -21.4261
lclavicle 3.46631e-014 9.93923e-015
lhumerus -32.5299 1.86278 84.0489
lradius 33.6518
lwrist -9.86057
lhand -16.9402 24.2097
lfingers 7.12502
lthumb 9.29309 53.9849
rfemur -11.6702 -7.97532 14.1432
rtibia 60.3786
rfoot -2.73697 -6.02622
rtoes -3.65471
lfemur -3.36624 5.0884 -30.1704
ltibia 14.6094
lfoot -6.07357 -4.15865
ltoes 20.7894
3826
root -5.70611 17.8607 17.234 -1621.78 69.0466 -179.833
lowerback 11.0101 1.6101 -3.39005
upperback 0.749655 1.74836 -0.407232
thorax -5.4806 0.959016 1.20843
lowerneck -18.5262 -3.47327 -9.8025
upperneck 28.6079 -3.00393 5.92812
head 12.9012 -1.37585 3.53643
rclavicle -1.58282e-014 1.27222e-014
rhumerus -36.4624 -8.79094 -82.288
rradius 32.4096
rwrist 5.19929
rhand -17.0361 7.04473
rfingers 7.12502
rthumb 9.20055 -22.7345
lclavicle -1.58282e-014 1.27222e-014
lhumerus -32.0242 1.28091 84.1592
lradius 34.1469
lwrist -9.10605
lhand -17.1429 24.6555
lfingers 7.12502
lthumb 9.09747 54.4393
rfemur -12.4044 -7.58708 14.0461
rtibia 60.2922
rfoot -3.86599 -6.08155
rtoes -3.15588
lfemur -3.09414 4.90363 -30.2637
ltibia 15.0016
lfoot -6.47709 -4.76452
ltoes 20.1178
3827
root -5.61127 17.8468 17.2004 -1621.85 67.9695 -179.927
lowerback 10.9595 1.43044 -3.40677
upperback 0.769117 1.51151 -0.396633
thorax -5.42098 0.842446 1.26793
lowerneck -18.5529 -3.43582 -9.40806
upperneck 28.4469 -2.9248 5.42531
head 12.8172 -1.3654 3.27769
rclavicle -4.12478e-015 1.39149e-014
rhumerus -36.5382 -8.89622 -82.24
rradius 32.1632
rwrist 5.13774
rhand -17.1975 6.59852
rfingers 7.12502
rthumb 9.04479 -23.1876
lclavicle -4.12478e-015 1.39149e-014
lhumerus -31.6473 0.700417 84.3707
lradius 34.6475
lwrist -8.49574
lhand -17.2025 24.6149
lfingers 7.12502
lthumb 9.03997 54.4011
rfemur -13.1286 -7.27795 14.0178
rtibia 60.1467
rfoot -5.17061 -6.13704
rtoes -1.11123
lfemur -2.89669 4.46305 -30.2887
ltibia 15.4354
lfoot -6.72016 -5.32801
ltoes 16.0889
3828
root -5.52093 17.8333 17.1637 -1621.77 66.9852 -179.861
lowerback 11.0115 1.30665 -3.48091
upperback 0.720165 1.34179 -0.231733
thorax -5.49912 0.76341 1.50755
lowerneck -18.4177 -3.30442 -8.79554
upperneck 28.1041 -2.62056 4.35291
head 12.5972 -1.30846 2.79386
rclavicle -6.60959e-015 -8.34896e-015
rhumerus -36.6942 -9.01163 -81.8828
rradius 31.8905
rwrist 5.35029
rhand -17.1921 6.7063
rfingers 7.12502
rthumb 9.04995 -23.0796
lclavicle -6.60959e-015 -8.34896e-015
lhumerus -31.3696 0.390475 84.7529
lradius 35.1181
lwrist -8.01078
lhand -17.5941 24.6641
lfingers 7.12502
lthumb 8.6621 54.4664
rfemur -13.8683 -6.86027 14.0396
rtibia 59.8953
rfoot -6.07681 -6.24999
rtoes -1.35089
lfemur -2.77094 3.98945 -30.2703
ltibia 15.9667
lfoot -7.06885 -5.58223
ltoes 16.6306
3829
root -5.43155 17.8193 17.1326 -1621.67 66.0485 -179.776
lowerback 11.101 1.17854 -3.56599
upperback 0.673497 1.16263 -0.0947891
thorax -5.59348 0.68042 1.72559
lowerneck -18.387 -3.22681 -8.43112
upperneck 27.9766 -2.43077 3.70979
head 12.511 -1.26981 2.51081
rclavicle 1.1281e-014 8.15017e-015
rhumerus -36.9334 -8.96977 -81.6799
rradius 31.819
rwrist 5.47152
rhand -17.2735 6.73566
rfingers 7.12502
rthumb 8.97142 -23.0536
lclavicle 1.1281e-014 8.15017e-015
lhumerus -31.0567 0.0664056 85.0307
lradius 35.5499
lwrist -7.51535
lhand -18.1797 24.6554
lfingers 7.12502
lthumb 8.0969 54.4803
rfemur -14.6479 -6.36922 14.0917
rtibia 59.547
rfoot -6.85587 -6.51349
rtoes -1.55687
lfemur -2.6863 3.60805 -30.2142
ltibia 16.5257
lfoot -7.67534 -5.98064
ltoes 16.1579
